<svg width="54" height="54" viewBox="0 0 54 54" fill="none" xmlns="http://www.w3.org/2000/svg">
<path d="M43.6875 30.375H35.4375C35.2137 30.375 34.9991 30.2861 34.8409 30.1279C34.6826 29.9696 34.5938 29.755 34.5938 29.5312C34.5938 29.3075 34.6826 29.0929 34.8409 28.9346C34.9991 28.7764 35.2137 28.6875 35.4375 28.6875H43.6875C43.9113 28.6875 44.1259 28.7764 44.2841 28.9346C44.4423 29.0929 44.5312 29.3075 44.5312 29.5312C44.5312 29.755 44.4423 29.9696 44.2841 30.1279C44.1259 30.2861 43.9113 30.375 43.6875 30.375Z" fill="#E0E2E5"/>
<path d="M25.3125 19.4062L27 39.6562V41.3438H37.125V39.6562L38.8125 19.4062H25.3125Z" fill="#93573D"/>
<path d="M16.875 19.4062V18.5625H13.5V21.0938H10.125V29.5312H13.5H16.875V28.6875H20.25V19.4062H16.875Z" fill="#FDD14B"/>
<path d="M13.5 32.0625C13.2762 32.0625 13.0616 31.9736 12.9034 31.8154C12.7451 31.6571 12.6562 31.4425 12.6562 31.2188V21.9375C12.6562 21.7137 12.7451 21.4991 12.9034 21.3409C13.0616 21.1826 13.2762 21.0938 13.5 21.0938C13.7238 21.0938 13.9384 21.1826 14.0966 21.3409C14.2549 21.4991 14.3438 21.7137 14.3438 21.9375V31.2188C14.3438 31.4425 14.2549 31.6571 14.0966 31.8154C13.9384 31.9736 13.7238 32.0625 13.5 32.0625Z" fill="#E4BC43"/>
<path d="M16.9957 33.75C16.7733 33.75 16.5599 33.6623 16.4019 33.5058C16.2439 33.3492 16.1541 33.1367 16.1519 32.9143L16.0313 20.2581C16.0292 20.0343 16.116 19.8188 16.2727 19.6591C16.4295 19.4993 16.6432 19.4084 16.867 19.4063C17.0908 19.4042 17.3063 19.491 17.466 19.6477C17.6257 19.8045 17.7167 20.0182 17.7188 20.242L17.8393 32.8983C17.8415 33.122 17.7546 33.3374 17.598 33.4972C17.4413 33.6569 17.2276 33.7479 17.0038 33.75H16.9957Z" fill="#E4BC43"/>
<path d="M9.28125 27.8438L10.9688 39.6562V41.3438H21.0938V39.6562V27.8438H9.28125Z" fill="#E74444"/>
<path d="M48.9375 30.375H47.25C47.0262 30.375 46.8116 30.2861 46.6534 30.1279C46.4951 29.9696 46.4062 29.755 46.4062 29.5312C46.4062 29.3075 46.4951 29.0929 46.6534 28.9346C46.8116 28.7764 47.0262 28.6875 47.25 28.6875H48.9375C49.1613 28.6875 49.3759 28.7764 49.5341 28.9346C49.6924 29.0929 49.7812 29.3075 49.7812 29.5312C49.7812 29.755 49.6924 29.9696 49.5341 30.1279C49.3759 30.2861 49.1613 30.375 48.9375 30.375Z" fill="#E0E2E5"/>
<path d="M38.8125 19.4062L38.5309 22.7812H25.5941L25.3125 19.4062H38.8125Z" fill="#A4D4F4"/>
<path d="M23.6735 14.3438C23.5208 14.3437 23.371 14.3021 23.2401 14.2236C23.1092 14.145 23.002 14.0324 22.93 13.8978C22.8581 13.7631 22.824 13.6115 22.8314 13.459C22.8388 13.3065 22.8875 13.1589 22.9722 13.0319L23.7738 11.8289C23.8934 11.6494 23.9397 11.431 23.9033 11.2184C23.8669 11.0059 23.7505 10.8153 23.578 10.6859L22.7571 10.0701C22.2398 9.6817 21.8908 9.11003 21.7817 8.47241C21.6726 7.83479 21.8117 7.17959 22.1704 6.64129L22.972 5.43821C23.0335 5.34602 23.1125 5.26683 23.2045 5.20518C23.2966 5.14352 23.3999 5.10061 23.5086 5.07888C23.6172 5.05715 23.7291 5.05704 23.8378 5.07855C23.9465 5.10005 24.0499 5.14276 24.1421 5.20423C24.2343 5.2657 24.3135 5.34472 24.3751 5.43679C24.4368 5.52886 24.4797 5.63218 24.5014 5.74083C24.5232 5.84949 24.5233 5.96136 24.5018 6.07006C24.4803 6.17876 24.4376 6.28216 24.3761 6.37435L23.5742 7.57733C23.4546 7.75678 23.4083 7.97522 23.4447 8.18779C23.4811 8.40035 23.5975 8.5909 23.7701 8.72029L24.5909 9.33612C25.1083 9.72445 25.4575 10.2961 25.5667 10.9337C25.6759 11.5714 25.537 12.2266 25.1783 12.765L24.3767 13.9681C24.2996 14.0839 24.195 14.1788 24.0723 14.2443C23.9496 14.3099 23.8126 14.344 23.6735 14.3438Z" fill="#E0E2E5"/>
<path d="M16.9235 14.3439C16.7708 14.3438 16.621 14.3022 16.4901 14.2237C16.3592 14.1451 16.252 14.0326 16.18 13.8979C16.1081 13.7633 16.074 13.6116 16.0814 13.4591C16.0888 13.3066 16.1375 13.159 16.2222 13.032L17.0238 11.829C17.1434 11.6496 17.1897 11.4311 17.1533 11.2186C17.1169 11.006 17.0005 10.8154 16.828 10.686L16.0071 10.0702C15.4898 9.68183 15.1408 9.11015 15.0317 8.47253C14.9226 7.83491 15.0617 7.17971 15.4204 6.64142L16.222 5.43834C16.3461 5.25214 16.5391 5.12289 16.7586 5.07901C16.978 5.03513 17.2059 5.08021 17.3921 5.20435C17.5783 5.32849 17.7076 5.52152 17.7514 5.74096C17.7953 5.9604 17.7502 6.18828 17.6261 6.37448L16.8242 7.57745C16.7046 7.75691 16.6582 7.97535 16.6947 8.18791C16.7311 8.40048 16.8475 8.59102 17.0201 8.72042L17.8409 9.33625C18.3583 9.72457 18.7075 10.2962 18.8167 10.9339C18.9259 11.5715 18.787 12.2268 18.4283 12.7651L17.6267 13.9682C17.5496 14.084 17.445 14.1789 17.3223 14.2445C17.1996 14.31 17.0626 14.3442 16.9235 14.3439Z" fill="#E0E2E5"/>
<path d="M30.3297 14.3438C30.177 14.3437 30.0272 14.3021 29.8963 14.2236C29.7654 14.145 29.6582 14.0324 29.5862 13.8978C29.5143 13.7632 29.4802 13.6115 29.4876 13.459C29.495 13.3065 29.5437 13.1589 29.6284 13.0319L30.4305 11.8289C30.5501 11.6494 30.5965 11.431 30.56 11.2184C30.5236 11.0059 30.4072 10.8153 30.2347 10.6859L29.4138 10.0702C28.8964 9.68188 28.5472 9.11024 28.438 8.4726C28.3288 7.83496 28.4678 7.1797 28.8264 6.64131L29.628 5.43823C29.7521 5.25195 29.9452 5.12261 30.1647 5.07868C30.2734 5.05692 30.3853 5.05678 30.494 5.07827C30.6028 5.09977 30.7062 5.14246 30.7984 5.20393C30.8907 5.2654 30.9699 5.34443 31.0316 5.43652C31.0933 5.52861 31.1362 5.63194 31.158 5.74063C31.1797 5.84931 31.1799 5.96122 31.1584 6.06996C31.1369 6.17869 31.0942 6.28213 31.0327 6.37437L30.2312 7.57735C30.1116 7.75679 30.0652 7.97522 30.1016 8.18779C30.138 8.40035 30.2544 8.5909 30.4269 8.72031L31.2478 9.33614C31.7652 9.72443 32.1144 10.2961 32.2237 10.9337C32.3329 11.5714 32.1939 12.2267 31.8351 12.765L31.0336 13.9681C30.9564 14.084 30.8517 14.1789 30.7289 14.2445C30.6061 14.31 30.4689 14.3442 30.3297 14.3438Z" fill="#E0E2E5"/>
<path d="M51.4688 25.3125H42.1875C41.9637 25.3125 41.7491 25.2236 41.5909 25.0654C41.4326 24.9071 41.3438 24.6925 41.3438 24.4688C41.3438 24.245 41.4326 24.0304 41.5909 23.8721C41.7491 23.7139 41.9637 23.625 42.1875 23.625H51.4688C51.6925 23.625 51.9071 23.7139 52.0654 23.8721C52.2236 24.0304 52.3125 24.245 52.3125 24.4688C52.3125 24.6925 52.2236 24.9071 52.0654 25.0654C51.9071 25.2236 51.6925 25.3125 51.4688 25.3125Z" fill="#E0E2E5"/>
<path d="M45.5625 35.4375H40.5C40.2762 35.4375 40.0616 35.3486 39.9034 35.1904C39.7451 35.0321 39.6562 34.8175 39.6562 34.5938C39.6562 34.37 39.7451 34.1554 39.9034 33.9971C40.0616 33.8389 40.2762 33.75 40.5 33.75H45.5625C45.7863 33.75 46.0009 33.8389 46.1591 33.9971C46.3174 34.1554 46.4062 34.37 46.4062 34.5938C46.4062 34.8175 46.3174 35.0321 46.1591 35.1904C46.0009 35.3486 45.7863 35.4375 45.5625 35.4375Z" fill="#E0E2E5"/>
<path d="M51.4688 48.9375H2.53125C2.30747 48.9375 2.09286 48.8486 1.93463 48.6904C1.77639 48.5321 1.6875 48.3175 1.6875 48.0938C1.6875 47.87 1.77639 47.6554 1.93463 47.4971C2.09286 47.3389 2.30747 47.25 2.53125 47.25H51.4688C51.6925 47.25 51.9071 47.3389 52.0654 47.4971C52.2236 47.6554 52.3125 47.87 52.3125 48.0938C52.3125 48.3175 52.2236 48.5321 52.0654 48.6904C51.9071 48.8486 51.6925 48.9375 51.4688 48.9375Z" fill="#C2C5C6"/>
<path d="M2.53125 39.6562H44.7188V41.3438C44.7188 41.7913 44.541 42.2205 44.2245 42.537C43.908 42.8535 43.4788 43.0312 43.0312 43.0312H4.21875C3.7712 43.0312 3.34197 42.8535 3.02551 42.537C2.70904 42.2205 2.53125 41.7913 2.53125 41.3438V39.6562Z" fill="#FDD14B"/>
<path d="M36.2812 48.0938C39.0772 48.0938 41.3438 45.8272 41.3438 43.0312C41.3438 40.2353 39.0772 37.9688 36.2812 37.9688C33.4853 37.9688 31.2188 40.2353 31.2188 43.0312C31.2188 45.8272 33.4853 48.0938 36.2812 48.0938Z" fill="#6A7073"/>
<path d="M36.2812 44.7188C37.2132 44.7188 37.9688 43.9632 37.9688 43.0312C37.9688 42.0993 37.2132 41.3438 36.2812 41.3438C35.3493 41.3438 34.5938 42.0993 34.5938 43.0312C34.5938 43.9632 35.3493 44.7188 36.2812 44.7188Z" fill="#99A2A7"/>
<path d="M10.9688 48.0938C13.7647 48.0938 16.0312 45.8272 16.0312 43.0312C16.0312 40.2353 13.7647 37.9688 10.9688 37.9688C8.17281 37.9688 5.90625 40.2353 5.90625 43.0312C5.90625 45.8272 8.17281 48.0938 10.9688 48.0938Z" fill="#6A7073"/>
<path d="M10.9688 44.7188C11.9007 44.7188 12.6562 43.9632 12.6562 43.0312C12.6562 42.0993 11.9007 41.3438 10.9688 41.3438C10.0368 41.3438 9.28125 42.0993 9.28125 43.0312C9.28125 43.9632 10.0368 44.7188 10.9688 44.7188Z" fill="#99A2A7"/>
<path d="M16.0312 36.2812H31.2188V37.9688C31.2188 38.4163 31.041 38.8455 30.7245 39.162C30.408 39.4785 29.9788 39.6562 29.5312 39.6562H17.7188C17.2712 39.6562 16.842 39.4785 16.5255 39.162C16.209 38.8455 16.0312 38.4163 16.0312 37.9688V36.2812Z" fill="#EA8333"/>
<path d="M30.5285 32.9062C31.3757 32.9062 32.0625 33.6617 32.0625 34.5938C32.0625 35.5258 31.3757 36.2812 30.5285 36.2812H16.7215C15.8743 36.2812 15.1875 35.5258 15.1875 34.5938C15.1875 33.6617 15.8743 32.9062 16.7215 32.9062H30.5285Z" fill="#794832"/>
<path d="M16.875 29.5312H30.375V32.9062H16.875V29.5312Z" fill="#FDD14B"/>
<path d="M32.9062 30.375C32.9062 31.773 31.719 32.9063 30.2544 32.9063C29.8221 32.9096 29.3953 32.8083 29.0104 32.6112C28.6256 32.4141 28.2941 32.1269 28.0441 31.774C27.7919 32.1243 27.46 32.4097 27.0759 32.6065C26.6917 32.8033 26.2662 32.9059 25.8346 32.9059C25.4029 32.9059 24.9775 32.8033 24.5933 32.6065C24.2091 32.4097 23.8772 32.1243 23.625 31.774C23.3728 32.1243 23.0409 32.4097 22.6567 32.6065C22.2725 32.8033 21.8471 32.9059 21.4154 32.9059C20.9838 32.9059 20.5583 32.8033 20.1741 32.6065C19.79 32.4097 19.4581 32.1243 19.2059 31.774C18.9559 32.1269 18.6244 32.4141 18.2395 32.6112C17.8547 32.8083 17.4279 32.9096 16.9956 32.9063C15.531 32.9063 14.3438 31.773 14.3438 30.375C14.3438 30.1512 14.4326 29.9366 14.5909 29.7784C14.7491 29.6201 14.9637 29.5312 15.1875 29.5312H32.0625C32.2863 29.5312 32.5009 29.6201 32.6591 29.7784C32.8174 29.9366 32.9062 30.1512 32.9062 30.375Z" fill="#3BA673"/>
<path d="M31.2188 22.7813V16.0313C31.2187 15.8626 31.2693 15.6979 31.3638 15.5582C31.4584 15.4186 31.5926 15.3105 31.7492 15.2478L35.9679 13.5603C36.0708 13.5192 36.1808 13.4987 36.2916 13.5001C36.4024 13.5014 36.5118 13.5246 36.6136 13.5682C36.7155 13.6119 36.8077 13.6752 36.8851 13.7545C36.9625 13.8338 37.0235 13.9275 37.0647 14.0304C37.1058 14.1333 37.1263 14.2433 37.125 14.3541C37.1236 14.4649 37.1004 14.5743 37.0568 14.6762C37.0131 14.778 36.9499 14.8703 36.8706 14.9476C36.7912 15.025 36.6975 15.086 36.5946 15.1272L32.9063 16.6025V22.7813H31.2188Z" fill="#E74444"/>
<path d="M31.2188 19.4062H32.9062V22.7812H31.2188V19.4062Z" fill="#CE3536"/>
</svg>
