<svg width="52" height="44" viewBox="0 0 52 44" fill="none" xmlns="http://www.w3.org/2000/svg">
<path d="M37.3987 36.5498V14.45H3.39883V36.5498C3.39883 37.4888 4.1599 38.2498 5.09883 38.2498H35.6987C36.6376 38.2498 37.3987 37.4888 37.3987 36.5498Z" fill="#289BC3"/>
<path d="M13.6013 33.1498H10.2013C7.38462 33.1498 5.10132 35.4331 5.10132 38.2498C5.10132 41.0664 7.38462 43.3497 10.2013 43.3497H13.6013C16.4179 43.3497 18.7012 41.0664 18.7012 38.2498C18.7012 35.4331 16.4179 33.1498 13.6013 33.1498Z" fill="#32283C"/>
<path d="M44.1988 33.1498H40.7988C37.9822 33.1498 35.6989 35.4331 35.6989 38.2498C35.6989 41.0664 37.9822 43.3497 40.7988 43.3497H44.1988C47.0155 43.3497 49.2988 41.0664 49.2988 38.2498C49.2988 35.4331 47.0155 33.1498 44.1988 33.1498Z" fill="#32283C"/>
<path d="M40.7988 43.3497C43.6155 43.3497 45.8988 41.0664 45.8988 38.2498C45.8988 35.4331 43.6155 33.1498 40.7988 33.1498C37.9822 33.1498 35.6989 35.4331 35.6989 38.2498C35.6989 41.0664 37.9822 43.3497 40.7988 43.3497Z" fill="#555A6E"/>
<path d="M40.7976 39.9498C41.7365 39.9498 42.4976 39.1887 42.4976 38.2498C42.4976 37.3109 41.7365 36.5498 40.7976 36.5498C39.8588 36.5498 39.0977 37.3109 39.0977 38.2498C39.0977 39.1887 39.8588 39.9498 40.7976 39.9498Z" fill="#E6E6EB"/>
<path d="M30.601 33.1498H27.201C24.3843 33.1498 22.101 35.4331 22.101 38.2498C22.101 41.0664 24.3843 43.3497 27.201 43.3497H30.601C33.4176 43.3497 35.7009 41.0664 35.7009 38.2498C35.7009 35.4331 33.4176 33.1498 30.601 33.1498Z" fill="#32283C"/>
<path d="M47.6022 16.1499H22.1023C21.1634 16.1499 20.4023 16.911 20.4023 17.8499V19.5499H47.6022C48.5411 19.5499 49.3022 18.7888 49.3022 17.8499C49.3022 16.911 48.5411 16.1499 47.6022 16.1499Z" fill="#A5C3DC"/>
<path d="M30.6023 16.1499H22.1023C21.1634 16.1499 20.4023 16.911 20.4023 17.8499V19.5499H30.6023C31.5412 19.5499 32.3023 18.7888 32.3023 17.8499C32.3023 16.911 31.5412 16.1499 30.6023 16.1499Z" fill="#D7E6F0"/>
<path d="M20.4023 19.5499H47.6022V28.0499H20.4023V19.5499Z" fill="#463C4B"/>
<path d="M20.4023 19.5499H30.6023V28.0499H20.4023V19.5499Z" fill="#555A6E"/>
<path d="M49.3022 38.2498H22.1023C21.1634 38.2498 20.4023 37.4887 20.4023 36.5498V28.0498H47.6022C49.4799 28.0498 51.0022 29.572 51.0022 31.4498V36.5498C51.0022 37.4887 50.2411 38.2498 49.3022 38.2498Z" fill="#A5C3DC"/>
<path d="M32.3023 38.2498H22.1023C21.1634 38.2498 20.4023 37.4887 20.4023 36.5498V28.0498H30.6023C32.48 28.0498 34.0022 29.572 34.0022 31.4498V36.5498C34.0022 37.4887 33.2412 38.2498 32.3023 38.2498Z" fill="#D7E6F0"/>
<path d="M38.1073 31.4498H46.8906C48.2207 31.4498 49.2989 32.528 49.2989 33.8582C49.2989 35.1882 48.2207 36.2665 46.8905 36.2665H38.1072C36.7772 36.2665 35.6989 35.1883 35.6989 33.8582C35.699 32.528 36.7772 31.4498 38.1073 31.4498Z" fill="#555A6E"/>
<path d="M38.1109 35.1332C38.8151 35.1332 39.3859 34.5624 39.3859 33.8582C39.3859 33.1541 38.8151 32.5833 38.1109 32.5833C37.4068 32.5833 36.8359 33.1541 36.8359 33.8582C36.8359 34.5624 37.4068 35.1332 38.1109 35.1332Z" fill="#00D2D2"/>
<path d="M46.8883 35.1332C47.5924 35.1332 48.1633 34.5624 48.1633 33.8582C48.1633 33.1541 47.5924 32.5833 46.8883 32.5833C46.1841 32.5833 45.6133 33.1541 45.6133 33.8582C45.6133 34.5624 46.1841 35.1332 46.8883 35.1332Z" fill="#00D2D2"/>
<path d="M16.1493 0H11.0494C10.58 0 10.1994 0.380586 10.1994 0.849996C10.1994 1.31941 10.58 1.69999 11.0494 1.69999C14.3301 1.69999 16.9993 4.36919 16.9993 7.64996C16.9993 8.11937 17.3799 8.49996 17.8493 8.49996H22.9493C23.4187 8.49996 23.7993 8.11937 23.7993 7.64996C23.7993 3.43175 20.3675 0 16.1493 0Z" fill="#A5C3DC"/>
<path d="M29.7494 0H24.6495C20.4313 0 16.9995 3.43175 16.9995 7.64996C16.9995 8.11937 17.3801 8.49996 17.8495 8.49996H22.9495C23.4189 8.49996 23.7995 8.11937 23.7995 7.64996C23.7995 4.36919 26.4687 1.69999 29.7494 1.69999C30.2189 1.69999 30.5994 1.31941 30.5994 0.849996C30.5994 0.380586 30.2189 0 29.7494 0Z" fill="#A5C3DC"/>
<path d="M33.1496 0H28.0496C27.5802 0 27.1996 0.380586 27.1996 0.849996C27.1996 1.31941 27.5802 1.69999 28.0496 1.69999C29.4557 1.69999 30.5996 2.84387 30.5996 4.24998C30.5996 5.65608 29.4557 6.79996 28.0496 6.79996C27.5802 6.79996 27.1996 7.18055 27.1996 7.64996C27.1996 8.11937 27.5802 8.49996 28.0496 8.49996H33.1496C35.493 8.49996 37.3996 6.59342 37.3996 4.24998C37.3996 1.90654 35.493 0 33.1496 0Z" fill="#A5C3DC"/>
<path d="M12.7488 6.79996C11.3427 6.79996 10.1988 5.65608 10.1988 4.24998C10.1988 2.84387 11.3427 1.69999 12.7488 1.69999C13.2182 1.69999 13.5988 1.31941 13.5988 0.849996C13.5988 0.380586 13.2182 0 12.7488 0H7.64881C5.30537 0 3.39883 1.90654 3.39883 4.24998C3.39883 6.59342 5.30537 8.49996 7.64881 8.49996H12.7488C13.2182 8.49996 13.5988 8.11937 13.5988 7.64996C13.5988 7.18055 13.2182 6.79996 12.7488 6.79996Z" fill="#A5C3DC"/>
<path d="M39.0998 8.5H1.69999C0.761065 8.5 0 9.26106 0 10.2V12.75C0 13.6889 0.761065 14.45 1.69999 14.45H39.0998C40.0387 14.45 40.7998 13.6889 40.7998 12.75V10.2C40.7998 9.26106 40.0387 8.5 39.0998 8.5Z" fill="#289BC3"/>
<path d="M18.6988 38.2498H5.09883C4.1599 38.2498 3.39883 37.4888 3.39883 36.5498V19.5499H20.3987V36.5498C20.3987 37.4888 19.6377 38.2498 18.6988 38.2498Z" fill="#00D2D2"/>
<path d="M20.3999 8.5H1.69999C0.761065 8.5 0 9.26106 0 10.2V12.75C0 13.6889 0.761065 14.45 1.69999 14.45H20.3999C21.3388 14.45 22.0999 13.6889 22.0999 12.75V10.2C22.0999 9.26106 21.3388 8.5 20.3999 8.5Z" fill="#00D2D2"/>
<path d="M11.8977 12.7499C11.8977 13.6888 12.6587 14.4498 13.5977 14.4498H8.49769C7.55876 14.4498 6.7977 13.6888 6.7977 12.7499V10.1999C6.7977 9.26094 7.55876 8.49988 8.49769 8.49988H13.5977C12.6587 8.49988 11.8977 9.26094 11.8977 10.1999V12.7499Z" fill="#D7E6F0"/>
<path d="M28.9031 12.75C28.9031 13.6889 28.1421 14.45 27.2031 14.45H32.3031C33.242 14.45 34.0031 13.6889 34.0031 12.75V10.2C34.0031 9.26106 33.242 8.5 32.3031 8.5H27.2031C28.1421 8.5 28.9031 9.26106 28.9031 10.2V12.75Z" fill="#A5C3DC"/>
<path d="M28.053 8.49996H17.0031V7.64996C17.0031 3.43175 20.4348 0 24.653 0H28.053C30.3964 0 32.303 1.90654 32.303 4.24998C32.303 6.59342 30.3964 8.49996 28.053 8.49996ZM18.7636 6.79996H28.053C29.4591 6.79996 30.603 5.65608 30.603 4.24998C30.603 2.84387 29.4591 1.69999 28.053 1.69999H24.653C21.6607 1.69999 19.1772 3.92029 18.7636 6.79996Z" fill="#D7E6F0"/>
<path d="M18.6988 8.49996H7.64881C5.30537 8.49996 3.39883 6.59342 3.39883 4.24998C3.39883 1.90654 5.30537 0 7.64881 0H11.0488C15.267 0 18.6988 3.43175 18.6988 7.64996V8.49996ZM7.64881 1.69999C6.24271 1.69999 5.09883 2.84387 5.09883 4.24998C5.09883 5.65608 6.24271 6.79996 7.64881 6.79996H16.9382C16.5245 3.92029 14.041 1.69999 11.0488 1.69999H7.64881Z" fill="#D7E6F0"/>
<path d="M27.201 43.3497C30.0176 43.3497 32.301 41.0664 32.301 38.2498C32.301 35.4331 30.0176 33.1498 27.201 33.1498C24.3843 33.1498 22.101 35.4331 22.101 38.2498C22.101 41.0664 24.3843 43.3497 27.201 43.3497Z" fill="#555A6E"/>
<path d="M27.1999 39.9498C28.1387 39.9498 28.8999 39.1887 28.8999 38.2498C28.8999 37.3109 28.1387 36.5498 27.1999 36.5498C26.261 36.5498 25.4999 37.3109 25.4999 38.2498C25.4999 39.1887 26.261 39.9498 27.1999 39.9498Z" fill="#E6E6EB"/>
<path d="M10.2013 43.3497C13.0179 43.3497 15.3013 41.0664 15.3013 38.2498C15.3013 35.4331 13.0179 33.1498 10.2013 33.1498C7.38465 33.1498 5.10132 35.4331 5.10132 38.2498C5.10132 41.0664 7.38465 43.3497 10.2013 43.3497Z" fill="#555A6E"/>
<path d="M10.1967 39.9498C11.1355 39.9498 11.8967 39.1887 11.8967 38.2498C11.8967 37.3109 11.1355 36.5498 10.1967 36.5498C9.25779 36.5498 8.49667 37.3109 8.49667 38.2498C8.49667 39.1887 9.25779 39.9498 10.1967 39.9498Z" fill="#E6E6EB"/>
</svg>
