<svg width="44" height="44" viewBox="0 0 44 44" fill="none" xmlns="http://www.w3.org/2000/svg">
<g clip-path="url(#clip0_2_333)">
<path d="M35.5744 30.3717H12.5433C12.0277 30.3717 11.6097 29.9537 11.6097 29.4381V18.6801C11.6097 18.1645 12.0277 17.7465 12.5433 17.7465H35.5744C36.09 17.7465 36.508 18.1645 36.508 18.6801V29.4381C36.5082 29.9536 36.0902 30.3717 35.5744 30.3717Z" fill="url(#paint0_linear_2_333)"/>
<path d="M11.6351 29.0498L12.9569 30.3716H35.5744C36.09 30.3716 36.508 29.9537 36.508 29.438V18.68C36.508 18.1644 36.09 17.7463 35.5744 17.7463H12.5433C12.0277 17.7463 11.6097 18.1643 11.6097 18.68V28.9955L11.6351 29.0498Z" fill="url(#paint1_linear_2_333)"/>
<path d="M34.1717 28.9714H11.1407C10.625 28.9714 10.207 28.5534 10.207 28.0378V17.2797C10.207 16.7641 10.625 16.3461 11.1407 16.3461H34.1717C34.6873 16.3461 35.1053 16.7641 35.1053 17.2797V28.0377C35.1053 28.5534 34.6873 28.9714 34.1717 28.9714Z" fill="url(#paint2_linear_2_333)"/>
<path d="M10.2322 27.6496L11.554 28.9714H34.1715C34.6871 28.9714 35.1051 28.5534 35.1051 28.0377V17.2797C35.1051 16.764 34.6871 16.3459 34.1715 16.3459H11.1407C10.625 16.3459 10.207 16.7639 10.207 17.2797V27.5952L10.2322 27.6496Z" fill="url(#paint3_linear_2_333)"/>
<path d="M32.7736 27.5709H9.74261C9.22699 27.5709 8.80899 27.1529 8.80899 26.6373V15.8793C8.80899 15.3637 9.22699 14.9457 9.74261 14.9457H32.7736C33.2893 14.9457 33.7073 15.3637 33.7073 15.8793V26.6373C33.7073 27.1529 33.2893 27.5709 32.7736 27.5709Z" fill="url(#paint4_linear_2_333)"/>
<path d="M8.83434 26.2491L10.1561 27.5709H32.7736C33.2893 27.5709 33.7073 27.1529 33.7073 26.6373V15.8793C33.7073 15.3637 33.2893 14.9457 32.7736 14.9457H9.74261C9.22699 14.9457 8.80899 15.3637 8.80899 15.8793V26.1948L8.83434 26.2491Z" fill="url(#paint5_linear_2_333)"/>
<path d="M31.4573 26.2535H8.42622C7.9106 26.2535 7.4926 25.8355 7.4926 25.3199V14.5619C7.4926 14.0463 7.9106 13.6283 8.42622 13.6283H31.4573C31.9729 13.6283 32.3909 14.0463 32.3909 14.5619V25.3198C32.391 25.8354 31.973 26.2535 31.4573 26.2535Z" fill="url(#paint6_linear_2_333)"/>
<path d="M30.9827 16.2974C30.3071 16.2623 29.755 15.7088 29.7199 15.0333C29.7122 14.8839 29.7296 14.7398 29.7675 14.604H10.1125C10.1504 14.7396 10.1679 14.8838 10.1601 15.0333C10.1249 15.7088 9.57279 16.2623 8.89732 16.2973C8.66623 16.3093 8.44735 16.2623 8.25391 16.1704V23.7111C8.44752 23.6191 8.66658 23.5721 8.89775 23.5841C9.5733 23.6194 10.1252 24.1731 10.1601 24.8487C10.1677 24.998 10.1504 25.1419 10.1125 25.2775H29.7675C29.7296 25.142 29.7122 24.998 29.7199 24.8487C29.7548 24.1731 30.3067 23.6194 30.9822 23.5841C31.2134 23.572 31.4325 23.619 31.626 23.7111V16.1704C31.4327 16.2624 31.2137 16.3093 30.9827 16.2974Z" fill="url(#paint7_linear_2_333)"/>
<path d="M19.9399 23.1736C21.7254 23.1736 23.1728 21.7261 23.1728 19.9406C23.1728 18.1551 21.7254 16.7076 19.9399 16.7076C18.1544 16.7076 16.7069 18.1551 16.7069 19.9406C16.7069 21.7261 18.1544 23.1736 19.9399 23.1736Z" fill="url(#paint8_linear_2_333)"/>
<path d="M15.4964 15.7917H10.5312V17.2201H15.4964V15.7917Z" fill="url(#paint9_linear_2_333)"/>
<path d="M29.3479 22.6616H24.3828V24.09H29.3479V22.6616Z" fill="url(#paint10_linear_2_333)"/>
<path d="M42.7321 9.97245C41.8421 9.64683 40.868 10.0185 40.405 10.8083C38.9453 8.39876 37.0181 6.29063 34.6969 4.58727C30.9772 1.85807 26.5661 0.415527 21.9402 0.415527C17.3142 0.415527 12.903 1.85807 9.18345 4.58727C5.54048 7.26026 2.86646 10.9294 1.4503 15.1978C1.11454 16.2099 1.66282 17.3026 2.6749 17.6383C3.68733 17.9742 4.77977 17.4258 5.11544 16.4137C6.27791 12.91 8.47456 9.89699 11.4679 7.70061C14.5204 5.46082 18.1416 4.27686 21.9402 4.27686C25.7388 4.27686 29.3598 5.46082 32.4124 7.70069C34.1951 9.00866 35.695 10.6064 36.8623 12.4248C35.9741 12.2914 35.0847 12.795 34.7641 13.6714C34.3976 14.6728 34.9124 15.7816 35.9138 16.1481L39.9341 17.6191C39.9437 17.6226 39.9535 17.6249 39.9631 17.6283C39.9969 17.64 40.0309 17.6507 40.0653 17.6606C40.0837 17.6658 40.102 17.6712 40.1204 17.676C40.1551 17.6849 40.1901 17.6924 40.2253 17.6993C40.2433 17.7029 40.2612 17.707 40.2791 17.71C40.3165 17.7163 40.3541 17.7206 40.392 17.7249C40.4074 17.7265 40.4228 17.7291 40.4382 17.7303C40.4909 17.7347 40.5439 17.7371 40.5972 17.7371C40.5972 17.7371 40.5972 17.7371 40.5972 17.7371H40.5973C40.6474 17.7371 40.6974 17.7351 40.7469 17.7312C40.7587 17.7303 40.7705 17.7283 40.7824 17.7272C40.8205 17.7235 40.8586 17.7195 40.8963 17.7135C40.9109 17.7112 40.9254 17.7078 40.9401 17.7051C40.9753 17.6987 41.0103 17.6921 41.0449 17.6839C41.0611 17.68 41.0772 17.675 41.0934 17.6706C41.1263 17.6619 41.1588 17.653 41.191 17.6426C41.1958 17.6411 41.2006 17.64 41.2055 17.6385C41.215 17.6353 41.224 17.6309 41.2335 17.6277C41.2761 17.6127 41.3181 17.5966 41.3595 17.5788C41.3773 17.5712 41.395 17.5636 41.4124 17.5555C41.4527 17.5367 41.4924 17.5163 41.5314 17.4947C41.5438 17.4879 41.5566 17.4818 41.5689 17.4748C41.6158 17.4475 41.6613 17.4177 41.7059 17.3865C41.7234 17.3743 41.74 17.3613 41.7568 17.3486C41.7865 17.3263 41.8157 17.3032 41.8443 17.2792C41.8599 17.2659 41.8754 17.2527 41.8906 17.239C41.9231 17.2097 41.9545 17.1791 41.985 17.1475C41.9935 17.1388 42.0026 17.1304 42.0108 17.1215C42.0506 17.0788 42.0887 17.0341 42.1247 16.9875C42.1272 16.9842 42.1294 16.9808 42.1319 16.9775C42.164 16.9354 42.1944 16.8916 42.2232 16.8465C42.2308 16.8344 42.2381 16.8221 42.2455 16.8098C42.2678 16.7732 42.2888 16.7358 42.3089 16.6974C42.317 16.6816 42.3253 16.6658 42.333 16.6498C42.3505 16.6138 42.3665 16.577 42.3819 16.5395C42.389 16.5222 42.3967 16.5051 42.4033 16.4875C42.4055 16.4815 42.4084 16.4758 42.4106 16.4697L43.8817 12.4494C44.2482 11.4478 43.7334 10.3389 42.7321 9.97245Z" fill="url(#paint11_linear_2_333)"/>
<path d="M1.268 34.0273C2.15797 34.3529 3.13207 33.9813 3.5951 33.1915C5.05483 35.601 6.98197 37.7091 9.30323 39.4125C13.0228 42.1417 17.434 43.5844 22.0599 43.5844C26.6859 43.5844 31.0971 42.1418 34.8166 39.4125C38.4596 36.7395 41.1336 33.0704 42.5499 28.802C42.8856 27.7899 42.3374 26.6972 41.3253 26.3615C40.3129 26.0256 39.2204 26.574 38.8847 27.5861C37.7223 31.0898 35.5256 34.1028 32.5323 36.2992C29.4798 38.5389 25.8586 39.7229 22.06 39.7229C18.2614 39.7229 14.6404 38.539 11.5878 36.2992C9.8051 34.9912 8.30515 33.3934 7.13786 31.575C8.02611 31.7085 8.91548 31.2049 9.23611 30.3285C9.60263 29.3272 9.08778 28.2182 8.08635 27.8518L4.06612 26.3808C4.0565 26.3773 4.0467 26.375 4.03707 26.3716C4.0033 26.3598 3.96927 26.3492 3.93489 26.3393C3.9165 26.334 3.8982 26.3286 3.87981 26.3238C3.84509 26.315 3.81011 26.3075 3.77488 26.3005C3.75692 26.297 3.73896 26.2929 3.72108 26.2899C3.6837 26.2836 3.64606 26.2792 3.60816 26.275C3.59278 26.2734 3.57739 26.2708 3.56201 26.2696C3.50933 26.2652 3.45631 26.2627 3.40303 26.2627C3.40303 26.2627 3.40303 26.2627 3.40294 26.2627H3.40286C3.35275 26.2627 3.30283 26.2648 3.25333 26.2686C3.24147 26.2696 3.22969 26.2716 3.21783 26.2727C3.17968 26.2764 3.14161 26.2803 3.10388 26.2863C3.08927 26.2887 3.07475 26.2921 3.06005 26.2948C3.0249 26.3011 2.98993 26.3077 2.95529 26.316C2.93905 26.3199 2.92298 26.3249 2.90674 26.3292C2.874 26.3379 2.84134 26.3469 2.8092 26.3572C2.80439 26.3588 2.79958 26.3598 2.79468 26.3614C2.78514 26.3646 2.7762 26.3689 2.76666 26.3722C2.72412 26.3872 2.6821 26.4033 2.64068 26.4211C2.62289 26.4287 2.60519 26.4363 2.58783 26.4444C2.54744 26.4632 2.50782 26.4836 2.4688 26.5051C2.45643 26.5119 2.44354 26.518 2.43133 26.5251C2.38441 26.5523 2.33887 26.5821 2.29426 26.6133C2.27682 26.6255 2.26023 26.6385 2.24339 26.6512C2.21366 26.6736 2.18444 26.6966 2.15591 26.7207C2.14026 26.7339 2.1248 26.7471 2.10959 26.7609C2.0771 26.7902 2.04565 26.8208 2.01514 26.8523C2.00672 26.8611 1.99761 26.8694 1.98936 26.8784C1.94957 26.9211 1.9115 26.9658 1.87549 27.0123C1.873 27.0156 1.87077 27.0191 1.86827 27.0223C1.83622 27.0644 1.8058 27.1083 1.77701 27.1534C1.76936 27.1655 1.76205 27.1778 1.75466 27.1901C1.73241 27.2267 1.71135 27.2641 1.69133 27.3025C1.68316 27.3183 1.67491 27.334 1.66718 27.3501C1.64973 27.3861 1.63366 27.4229 1.61828 27.4603C1.61115 27.4777 1.6035 27.4948 1.59688 27.5123C1.59465 27.5183 1.59181 27.5241 1.58958 27.5302L0.118331 31.5506C-0.248191 32.552 0.266573 33.661 1.268 34.0273Z" fill="url(#paint12_radial_2_333)"/>
</g>
<defs>
<linearGradient id="paint0_linear_2_333" x1="11.6095" y1="24.0595" x2="36.5073" y2="24.0595" gradientUnits="userSpaceOnUse">
<stop stop-color="#61DB99"/>
<stop offset="1" stop-color="#009E74"/>
</linearGradient>
<linearGradient id="paint1_linear_2_333" x1="25.1837" y1="27.8651" x2="23.8776" y2="23.1176" gradientUnits="userSpaceOnUse">
<stop stop-color="#009E74" stop-opacity="0"/>
<stop offset="1" stop-color="#009E74"/>
</linearGradient>
<linearGradient id="paint2_linear_2_333" x1="10.2068" y1="22.6592" x2="35.1046" y2="22.6592" gradientUnits="userSpaceOnUse">
<stop stop-color="#61DB99"/>
<stop offset="1" stop-color="#009E74"/>
</linearGradient>
<linearGradient id="paint3_linear_2_333" x1="23.6262" y1="27.0378" x2="22.7652" y2="22.9139" gradientUnits="userSpaceOnUse">
<stop stop-color="#009E74" stop-opacity="0"/>
<stop offset="1" stop-color="#009E74"/>
</linearGradient>
<linearGradient id="paint4_linear_2_333" x1="8.80877" y1="21.2588" x2="33.7066" y2="21.2588" gradientUnits="userSpaceOnUse">
<stop stop-color="#61DB99"/>
<stop offset="1" stop-color="#009E74"/>
</linearGradient>
<linearGradient id="paint5_linear_2_333" x1="23.1312" y1="28.3975" x2="19.1273" y2="12.5432" gradientUnits="userSpaceOnUse">
<stop stop-color="#009E74" stop-opacity="0"/>
<stop offset="1" stop-color="#009E74"/>
</linearGradient>
<linearGradient id="paint6_linear_2_333" x1="7.49242" y1="19.9414" x2="32.3902" y2="19.9414" gradientUnits="userSpaceOnUse">
<stop stop-color="#A7F3CE"/>
<stop offset="1" stop-color="#61DB99"/>
</linearGradient>
<linearGradient id="paint7_linear_2_333" x1="13.4361" y1="13.4378" x2="29.2792" y2="29.2809" gradientUnits="userSpaceOnUse">
<stop stop-color="#61DB99"/>
<stop offset="1" stop-color="#009E74"/>
</linearGradient>
<linearGradient id="paint8_linear_2_333" x1="18.0155" y1="18.0173" x2="22.7027" y2="22.7045" gradientUnits="userSpaceOnUse">
<stop stop-color="#A7F3CE"/>
<stop offset="1" stop-color="#61DB99"/>
</linearGradient>
<linearGradient id="paint9_linear_2_333" x1="11.6688" y1="15.1618" x2="14.9455" y2="18.4384" gradientUnits="userSpaceOnUse">
<stop stop-color="#A7F3CE"/>
<stop offset="1" stop-color="#61DB99"/>
</linearGradient>
<linearGradient id="paint10_linear_2_333" x1="25.5196" y1="22.0311" x2="28.7963" y2="25.3078" gradientUnits="userSpaceOnUse">
<stop stop-color="#A7F3CE"/>
<stop offset="1" stop-color="#61DB99"/>
</linearGradient>
<linearGradient id="paint11_linear_2_333" x1="1.35154" y1="9.07712" x2="43.999" y2="9.07712" gradientUnits="userSpaceOnUse">
<stop stop-color="#FFB92D"/>
<stop offset="1" stop-color="#F59500"/>
</linearGradient>
<radialGradient id="paint12_radial_2_333" cx="0" cy="0" r="1" gradientUnits="userSpaceOnUse" gradientTransform="translate(22.2839 22.1382) rotate(180) scale(21.8589 21.8588)">
<stop stop-color="#BE3F45"/>
<stop offset="0.317" stop-color="#C14046"/>
<stop offset="0.538" stop-color="#CA4148"/>
<stop offset="0.729" stop-color="#D9444B"/>
<stop offset="0.902" stop-color="#EF4950"/>
<stop offset="1" stop-color="#FF4C54"/>
</radialGradient>
<clipPath id="clip0_2_333">
<rect width="44" height="44" fill="white"/>
</clipPath>
</defs>
</svg>
